<svg width="513" height="512" viewBox="0 0 513 512" fill="none" xmlns="http://www.w3.org/2000/svg">
<path d="M379.427 272.364L239.637 132.574L306.317 65.894C310.606 61.605 317.56 61.605 321.849 65.894L446.107 190.152C450.396 194.441 450.396 201.395 446.107 205.684L379.427 272.364Z" fill="#F7E782"/>
<path d="M446.107 190.151L321.849 65.893C317.612 61.656 310.779 61.613 306.479 65.746L415.661 174.928C419.95 179.217 419.95 186.171 415.661 190.46L356.592 249.529L379.426 272.363L446.106 205.683C450.396 201.395 450.396 194.441 446.107 190.151V190.151Z" fill="#FFD064"/>
<path d="M293.331 311.863L200.137 218.669L239.636 132.574L379.427 272.364L293.331 311.863Z" fill="#655E67"/>
<path d="M239.636 132.574L356.53 249.467L270.435 288.967L293.331 311.863L379.427 272.364L239.636 132.574Z" fill="#544F56"/>
<path d="M9.651 455.753L56.248 502.35C69.115 515.217 89.977 515.217 102.845 502.35L293.332 311.863L200.138 218.669L9.651 409.156C-3.217 422.024 -3.217 442.886 9.651 455.753V455.753Z" fill="#F7E782"/>
<path d="M270.033 288.565L97.629 460.969C84.762 473.836 63.9 473.836 51.032 460.969L5.02798 414.965C-2.95802 427.689 -1.42303 444.68 9.64997 455.753L56.247 502.35C69.114 515.218 89.976 515.218 102.844 502.35L293.331 311.863L270.033 288.565Z" fill="#FFD064"/>
<path d="M163.14 372.159L139.842 348.861C137.697 346.716 137.697 343.239 139.842 341.095L155.374 325.563C157.519 323.418 160.996 323.418 163.14 325.563L186.438 348.861C188.583 351.006 188.583 354.483 186.438 356.627L170.906 372.159C168.761 374.303 165.284 374.303 163.14 372.159Z" fill="#E5979D"/>
<path d="M116.543 418.756L93.245 395.458C91.1 393.313 91.1 389.836 93.245 387.692L108.777 372.16C110.922 370.015 114.399 370.015 116.543 372.16L139.841 395.458C141.986 397.603 141.986 401.08 139.841 403.224L124.309 418.756C122.165 420.9 118.688 420.9 116.543 418.756Z" fill="#B3E59F"/>
<path d="M448.205 213.778L298.223 63.796C295.449 61.022 295.449 56.524 298.223 53.749L309.705 42.267C312.479 39.493 316.977 39.493 319.752 42.267L469.734 192.249C472.508 195.023 472.508 199.521 469.734 202.296L458.252 213.778C455.477 216.552 450.979 216.552 448.205 213.778V213.778Z" fill="#655E67"/>
<path d="M469.733 192.249L448.491 171.008C451.265 173.782 451.265 178.28 448.49 181.054L437.008 192.536C434.234 195.311 429.736 195.311 426.961 192.536L298.221 63.796L448.203 213.778C450.977 216.552 455.475 216.552 458.25 213.778L469.732 202.296C472.508 199.521 472.508 195.023 469.733 192.249V192.249Z" fill="#544F56"/>
</svg>
